<?xml version="1.0" encoding="UTF-8"?>
<svg id="Layer_1" data-name="Layer 1" xmlns="http://www.w3.org/2000/svg" viewBox="0 0 197.98 50.55">
  <defs>
    <style>
      .cls-1 {
        fill: #a5aeb5;
        stroke-width: 0px;
      }
    </style>
  </defs>
  <g>
    <path class="cls-1" d="M43.24,23.69h4.32v2.67c.47-1.03,1.14-1.77,2-2.21.87-.45,1.92-.67,3.16-.67h1.12v4.08h-1.65c-1.31,0-2.37.41-3.16,1.23-.8.82-1.19,1.95-1.19,3.38v10.65h-4.6v-19.12Z"/>
    <path class="cls-1" d="M57.94,41.09c-1.29-1.43-1.93-3.33-1.93-5.69v-11.71h4.6v11.32c0,1.2.36,2.16,1.07,2.9.71.74,1.65,1.11,2.79,1.11s2.08-.37,2.79-1.12,1.07-1.75,1.07-2.99v-11.21h4.6v19.12h-4.36v-2.29c-.52.89-1.24,1.56-2.16,2.02-.93.46-2,.69-3.22.69-2.23,0-3.98-.71-5.27-2.14Z"/>
    <path class="cls-1" d="M77.23,23.69h4.32v2.36c.49-.89,1.21-1.58,2.16-2.06s2.03-.72,3.25-.72c1.38,0,2.62.3,3.73.91,1.1.61,1.96,1.46,2.57,2.57s.91,2.35.91,3.76v12.3h-4.6v-11.21c0-1.24-.36-2.24-1.07-2.99-.71-.75-1.65-1.12-2.79-1.12s-2.08.38-2.79,1.12c-.71.75-1.07,1.75-1.07,2.99v11.21h-4.6v-19.12Z"/>
    <path class="cls-1" d="M101.68,49.02c-1.63-1.02-2.75-2.37-3.36-4.06l4.29-1.62c.28.91.84,1.64,1.69,2.18.84.54,1.86.81,3.06.81,1.41,0,2.55-.4,3.43-1.2.88-.8,1.32-1.89,1.32-3.27v-2.07c-1.36,1.5-3.2,2.25-5.52,2.25-1.76,0-3.35-.41-4.76-1.23-1.42-.82-2.53-1.94-3.32-3.37s-1.19-3.04-1.19-4.82.39-3.38,1.18-4.8,1.88-2.53,3.29-3.34c1.41-.81,2.98-1.21,4.71-1.21,2.46,0,4.42.87,5.87,2.6v-2.18h4.36v18.17c0,1.66-.4,3.16-1.2,4.48-.8,1.32-1.9,2.35-3.32,3.09s-3.03,1.11-4.83,1.11c-2.16,0-4.05-.51-5.68-1.53ZM103.51,36.33c.95.97,2.16,1.46,3.64,1.46s2.64-.48,3.57-1.44,1.39-2.19,1.39-3.69-.47-2.74-1.41-3.71c-.94-.97-2.12-1.46-3.55-1.46s-2.66.49-3.62,1.48c-.96.98-1.44,2.21-1.44,3.69s.47,2.7,1.42,3.67Z"/>
    <path class="cls-1" d="M124.71,41.25c-1.18-1.18-1.77-2.85-1.77-5.01v-8.44h-3.3v-4.11h.35c.94,0,1.66-.25,2.18-.74.51-.49.77-1.21.77-2.14v-1.48h4.6v4.36h4.39v4.11h-4.39v8.19c0,1.99,1.08,2.99,3.23,2.99.37,0,.79-.04,1.23-.11v3.97c-.75.12-1.51.18-2.29.18-2.16,0-3.83-.59-5.01-1.78Z"/>
    <path class="cls-1" d="M135.52,16.2h4.6v9.39c.54-.75,1.25-1.32,2.14-1.72s1.89-.6,2.99-.6c1.38,0,2.62.3,3.73.91s1.96,1.46,2.57,2.57.91,2.35.91,3.76v12.3h-4.6v-11.21c0-1.24-.36-2.24-1.07-2.99-.72-.75-1.65-1.12-2.79-1.12s-2.05.38-2.78,1.12c-.73.75-1.09,1.75-1.09,2.99v11.21h-4.6v-26.61Z"/>
    <path class="cls-1" d="M160.32,41.9c-1.49-.89-2.65-2.1-3.48-3.62-.83-1.52-1.25-3.21-1.25-5.06s.42-3.57,1.25-5.08c.83-1.51,1.97-2.7,3.41-3.57,1.44-.87,3.05-1.3,4.83-1.3,1.92,0,3.59.42,4.99,1.25,1.41.83,2.48,1.96,3.22,3.39s1.11,3,1.11,4.71c0,.8-.08,1.44-.25,1.93h-13.78c.14,1.41.68,2.53,1.62,3.37.94.84,2.1,1.27,3.48,1.27,1.03,0,1.92-.22,2.65-.65.74-.43,1.33-1.04,1.77-1.81l3.73,1.83c-.59,1.41-1.62,2.54-3.09,3.39s-3.18,1.28-5.1,1.28-3.63-.45-5.12-1.34ZM169.47,31.04c-.12-1.17-.57-2.13-1.37-2.87-.8-.74-1.81-1.11-3.02-1.11s-2.17.35-2.99,1.04-1.36,1.67-1.62,2.93h9Z"/>
    <path class="cls-1" d="M177.88,23.69h4.32v2.25c.7-.84,1.58-1.5,2.62-1.97s2.22-.7,3.53-.7c1.78,0,3.41.44,4.89,1.32s2.64,2.08,3.48,3.6c.84,1.52,1.27,3.21,1.27,5.06s-.42,3.54-1.27,5.06c-.84,1.52-2,2.72-3.46,3.6s-3.11,1.32-4.94,1.32c-1.17,0-2.26-.19-3.27-.58s-1.86-.94-2.57-1.67v8.86h-4.6v-26.15ZM183.17,36.22c.46.88,1.09,1.56,1.9,2.06.81.49,1.72.74,2.72.74,1.57,0,2.86-.54,3.88-1.63,1.02-1.09,1.53-2.47,1.53-4.13,0-1.08-.23-2.06-.7-2.94s-1.11-1.57-1.93-2.07c-.82-.5-1.75-.75-2.78-.75s-1.92.25-2.72.74c-.81.49-1.44,1.18-1.9,2.06s-.69,1.87-.69,2.97.23,2.09.69,2.97Z"/>
  </g>
  <g>
    <path class="cls-1" d="M142.38,13.12c-.67-.34-1.2-.78-1.58-1.31-.38-.53-.62-1.08-.72-1.65l2-.53c.16.64.47,1.13.94,1.49s1.06.53,1.77.53c.54,0,.98-.14,1.32-.41.34-.27.51-.6.51-.97,0-.34-.12-.64-.37-.9s-.58-.43-.99-.51l-1.75-.34c-.93-.18-1.66-.58-2.19-1.21-.53-.63-.8-1.39-.8-2.29,0-.63.18-1.2.54-1.73s.84-.94,1.44-1.25c.6-.3,1.24-.45,1.92-.45.87,0,1.6.15,2.21.44.61.29,1.08.66,1.42,1.1.34.44.57.91.68,1.4l-1.99.63c-.22-.56-.52-.97-.89-1.21-.38-.24-.85-.37-1.43-.37-.32,0-.61.07-.87.2s-.45.31-.6.52-.21.43-.21.65c0,.34.11.64.34.9s.55.42.96.49l1.66.36c1.01.22,1.8.63,2.35,1.25s.83,1.34.83,2.19c0,.61-.17,1.17-.5,1.71s-.81.96-1.43,1.29-1.35.49-2.19.49c-.92,0-1.71-.17-2.39-.52Z"/>
    <path class="cls-1" d="M152.22,12.75c-.53-.53-.79-1.27-.79-2.23v-3.76h-1.47v-1.83h.16c.42,0,.74-.11.97-.33.23-.22.34-.54.34-.96v-.66h2.05v1.94h1.96v1.83h-1.96v3.65c0,.89.48,1.33,1.44,1.33.17,0,.35-.02.55-.05v1.77c-.34.05-.67.08-1.02.08-.96,0-1.71-.26-2.23-.79Z"/>
    <path class="cls-1" d="M157.44,12.97c-.53-.44-.79-1.03-.79-1.79s.24-1.32.74-1.79c.49-.47,1.23-.78,2.21-.94l2.54-.41v-.28c0-.38-.14-.68-.43-.92-.29-.24-.67-.36-1.14-.36-.44,0-.83.12-1.17.35-.34.23-.59.55-.74.93l-1.68-.81c.25-.67.71-1.21,1.38-1.61s1.43-.61,2.29-.61c.69,0,1.3.13,1.84.38.54.26.96.62,1.25,1.08s.45.99.45,1.57v5.67h-1.94v-.91c-.67.73-1.56,1.1-2.66,1.1-.9,0-1.61-.22-2.14-.66ZM159.11,11.81c.22.17.5.26.85.26.64,0,1.16-.2,1.57-.6.41-.4.61-.9.61-1.5v-.34l-2.15.36c-.41.08-.71.22-.91.4-.2.18-.3.43-.3.73s.11.52.33.7Z"/>
    <path class="cls-1" d="M166.08,4.92h1.93v1.19c.21-.46.51-.79.89-.99.39-.2.86-.3,1.41-.3h.5v1.82h-.74c-.59,0-1.06.18-1.41.55-.36.37-.53.87-.53,1.5v4.75h-2.05V4.92Z"/>
    <path class="cls-1" d="M173.82,12.75c-.53-.53-.79-1.27-.79-2.23v-3.76h-1.47v-1.83h.16c.42,0,.74-.11.97-.33.23-.22.34-.54.34-.96v-.66h2.05v1.94h1.96v1.83h-1.96v3.65c0,.89.48,1.33,1.44,1.33.17,0,.35-.02.55-.05v1.77c-.34.05-.67.08-1.02.08-.96,0-1.71-.26-2.23-.79Z"/>
    <path class="cls-1" d="M179.33,12.68c-.57-.64-.86-1.48-.86-2.54v-5.22h2.05v5.04c0,.53.16.96.48,1.29.32.33.73.49,1.25.49s.93-.17,1.24-.5.48-.78.48-1.33v-5h2.05v8.52h-1.94v-1.02c-.23.4-.55.7-.96.9s-.89.31-1.43.31c-.99,0-1.78-.32-2.35-.96Z"/>
    <path class="cls-1" d="M187.93,4.92h1.93v1c.31-.38.7-.67,1.17-.88.47-.21.99-.31,1.58-.31.79,0,1.52.2,2.18.59.66.39,1.17.93,1.55,1.61.38.68.56,1.43.56,2.26s-.19,1.58-.56,2.26-.89,1.21-1.54,1.61c-.65.39-1.39.59-2.2.59-.52,0-1.01-.09-1.46-.26-.45-.17-.83-.42-1.14-.74v3.95h-2.05V4.92ZM190.28,10.51c.2.39.49.7.85.92.36.22.76.33,1.21.33.7,0,1.28-.24,1.73-.73s.68-1.1.68-1.84c0-.48-.1-.92-.31-1.31-.21-.39-.5-.7-.86-.92-.37-.22-.78-.34-1.24-.34s-.85.11-1.21.33-.64.52-.85.92c-.2.39-.31.83-.31,1.32s.1.93.31,1.32Z"/>
  </g>
  <g>
    <polygon class="cls-1" points="39.49 42.81 39.49 42.82 15.82 42.79 14.93 42.82 26.73 21.53 27.21 20.67 39.49 42.81"/>
    <polygon class="cls-1" points="13.33 0 11.46 0 0 20.67 .68 21.9 12.28 42.82 24.08 21.53 24.56 20.67 36.03 0 13.33 0"/>
  </g>
</svg>