<svg xmlns="http://www.w3.org/2000/svg" id="Layer_1" data-name="Layer 1" version="1.1" viewBox="0 0 883 256.2"><defs><style>.cls-1{fill:#a5aeb5;stroke-width:0}</style></defs><path d="M55.2,0c2.2,4.3,4.2,8.3,6.3,12.1,3.5,6.6,9.6,11.2,14.4,16.7,20,23,32.3,49.6,35.6,79.9,3.4,31-4,59.4-22.9,84.6-5.8,7.8-12.5,14.9-20.3,20.7-4.4,3.3-6.3,7.9-6.3,13.2,0,5.7-.6,11.3-.2,17,.1,1.3,1,3.5-1.6,3.7-2.6.2-5.2-1.7-5.3-3.9-.2-5-.8-9.9-1.3-14.8-.7-7-3.7-12.2-9.3-17C20.2,191.3,4.5,165.2.8,132.8c-2.4-21.5,1.1-42.5,8.2-62.8,7.2-20.5,18.6-38.4,34.5-53.4.3-.3.6-.6.9-.9q7.5-7,10.8-15.8ZM690.3,211.8c6.2,0,12.4,0,18.7,0,6.7.1,13.3-.5,19.8-2,18.7-4.5,33.4-14.3,41.6-32.3,4.5-9.9,5.4-20.4,4.9-31.2-.9-20.7-14.6-39.5-34.2-46.2-12.8-4.4-26-4-39.1-3.5-12,.4-24,.8-36,0-4.9-.4-6.3.5-8.1,5.1-.8,2-.2,2.9,1.9,3.1,3.6.3,7.1.9,10.5,2.1,2.8,1,4.4,2.9,4.6,5.8.3,3.6.6,7.1.6,10.7,0,18.2,0,36.5,0,54.7,0,5.6-.3,11.2-.7,16.7-.3,5.2-1.9,6.8-7,7.9-1.1.2-2.3.4-3.4.7-2.3.6-4.4,4.1-3.9,6.5.6,2.7,2.8,1.8,4.4,1.8,8.4,0,16.9,0,25.3,0,0,0,0,0,0,.1ZM694.2,112.3c0-5,.6-6.1,5.6-6.5,30.9-2.5,54.8,13.2,55.6,46.7.3,10.5-.9,20.7-6,30-6.3,11.6-15.8,18.6-29.3,19.7-5.7.5-11.2.1-16.6-1.4-6.9-1.9-9.4-5.2-9.4-12.3,0-12.8,0-25.5,0-38.3,0-12.6,0-25.3,0-37.9ZM862.1,144.2c8.4-5.5,13.1-13,12.3-23.3-.9-10.8-7-17.8-17.1-21.3-2.2-.8-4.4-1.4-6.7-1.8-8-1.4-16-.5-24-.6-11.1-.2-22.1,0-33.2-.2-4.5-.1-5.6.2-7,4.4-.8,2.2-.2,3.3,2.3,3.6,3,.4,6,.9,9,1.5,2.6.6,4.3,2.3,4.5,5.1.3,3.4.7,6.7.6,10.1-.7,20.6-.4,41.3-.5,61.9,0,2.3,0,4.6,0,7-.1,10.4-.8,11.3-11.2,12.9-2.9.4-5.3,3.3-5,6.2.3,3.4,3.2,2,5,2.2,2.7.2,5.5,0,8.2,0,6.8,0,13.7,0,20.5.3,12.5.7,24.9.4,36.8-4,10.2-3.8,19.2-9.4,23.7-20,5.4-12.6,3.2-28.7-11-36.6-3.3-1.9-6.9-3-10.7-4.6,1-1.5,2.4-1.9,3.5-2.6ZM820.7,157.6c0-1.5,0-3.2,2.1-3.3,10-.4,20.1-.5,29.3,4.5,8.5,4.7,12.3,13.2,10.8,25-1.2,9.1-6.4,15.2-15.4,17.7-6.4,1.8-13,1.3-19.4-.3-4.5-1.1-7.1-5.5-7.3-11.4,0-.2,0-.4,0-.6,0-5.2,0-10.3,0-15.5h0c0-5.4,0-10.8,0-16.1ZM820.8,111.3c0-4.4.9-5.2,5.2-5.3,6.6-.1,13,0,19.1,3,4.2,2,7.3,5,8.9,9.4,2.3,6.4,2.3,12.8-.7,19-2.7,5.4-7.7,7.3-13.3,7.6-5.5.3-10.9,0-16.4.1-2.3,0-2.8-1.2-2.8-3.2,0-5.3,0-10.5,0-15.8h0c0-5,0-9.9,0-14.8ZM173.5,176.7c0,6,0,12,0,18,0,6,1.3,7.5,7.3,8.5,2,.3,4,.4,4.1,3.3,0,3.8-.8,4.4-4.6,4.2-10-.5-20-.6-30,0-1.8.1-3.7.5-4.2-2-.6-3.1.1-4.8,2.8-5.3,9.4-1.6,8.8-3.6,9.3-11.6.6-11.7.2-23.4.5-35.1.1-4.6-1.5-7.4-5.8-8.9-1.7-.6-3.4-1.3-5-1.9-1.4-.5-3-1.1-2.9-2.9,0-1.9,1.7-2.5,3.3-2.9,2.8-.6,5.6-1.1,8.4-1.7,4.8-1,9.4-2.2,14-4,2.6-1,3.3.1,3.3,2.4,0,2-.3,4-.4,6,0,2.3.9,2.6,2.6,1.3,3.9-3.1,8.2-5.5,12.7-7.6,11.8-5.4,21.6-2.9,29,7.7,1.3,1.9,2.2,1.3,3.5.3,4.8-3.4,9.7-6.6,15.3-8.8,14.5-5.6,28,1.3,31.8,16.4,2.1,8.4,2,16.9,1.4,25.4-.4,6.4-.2,12.9-.2,19.3,0,2.7,1.8,4.2,4.2,5,1.5.5,3,.8,4.6,1.2,3.7.8,4.7,3,3,6.4-.6,1.2-1.5,1.3-2.6,1.3-10.6-.8-21.3-.3-31.9-.3-1.8,0-3.2,0-3.4-2.2-.2-2.1-.4-3.9,2.2-4.9,8.3-2.9,8.3-3,8.3-12,0-9.1,0-18.1,0-27.2-.2-14.1-11-21.4-24.3-16.3-1,.4-1.9.8-2.9,1.3-5.9,2.9-5.6,3.2-5.3,9.8.5,8.2.2,16.4.3,24.6,0,4.2.1,8.4,0,12.6-.1,3.4,1.5,5.3,4.7,6,1.1.2,2.2.6,3.4.8,2.8.4,3.7,1.9,3.3,4.6-.4,2.8-2,2.9-4.5,2.8-9.8-.3-19.6-.6-29.4.2-2,.2-4.4.8-4.8-2.5-.4-3.4.3-4.4,3.8-5.1,7-1.4,8-2.4,8.1-9.6.1-9.8,0-19.6,0-29.4,0-2.2-.4-4.4-1-6.5-2.6-9.3-10.1-13.6-19.5-11.1-1.3.3-2.6.8-3.9,1.2-7.9,3-9,4.6-9,13v15.8s0,0,0,0ZM526.9,254.2c11.7-3.9,21.7-10.3,27.1-21.8,6.3-13.4,1.7-28.2-14.4-30.7-4.5-.7-9-1-13.5-1.6-5.3-.7-10.8-.2-16-1.7-2.4-.7-4.4-2-4.2-4.8.2-2.6,2.1-3.8,4.5-4.2,2.7-.5,5.5-.5,8.1-1.2,17.1-4.2,27.2-15,25.8-32.8-.4-5.5-.5-5.5,5.1-5.7,6-.2,10.2-6.4,8.5-12.1-.6-1.9-1.5-1.8-2.7-.8-2.9,2.3-6.3,2.6-9.8,2.7-4.6.1-8.8-1.1-12.9-2.7-11.7-4.5-22.9-3.3-33.9,2.3-9.6,4.9-14.9,12.4-15.1,23.3-.2,11.3,3.8,20.1,14.7,25,2.7,1.2,2.6,2.1,0,3.8-2.8,1.8-5.7,3.6-8.6,5.4-1.9,1.2-2.4,2.8-1.7,4.9,1.3,4.2,4.2,7,7.9,9,3,1.7,3,1.6,0,3.7-4.1,2.9-8,5.9-11.4,9.4-3.7,3.8-4.9,8.2-3.6,13.4,1,4,2.9,7.5,5.8,10.4,7,7,15.7,9.1,25.7,8.8,4.7.3,9.8-.3,14.8-1.9ZM532.5,216.4c5.1,1.5,8.9,4.6,9.9,10,1.1,5.5-.8,10.3-4.9,14-9.9,8.9-29.9,7.9-39.1-1.8-4.7-5-5-12-.7-17.2,4.5-5.5,10.3-8.2,16.8-7,6.6-.2,12.3.5,17.9,2.1ZM505.4,143.9c6.7-4.2,16.7-1.5,20.6,5.7,4.2,7.8,4.5,16.1,1,24.3-2,4.6-5.7,7-10.6,7.2-6.2.2-10.9-2.7-14.1-7.9-2.7-4.4-3.6-9.4-3.6-14.5,0-5.9,1.3-11.4,6.7-14.8ZM412.3,145.3c4.9-3.7,9.5-7.2,14.9-9.4,16.1-6.6,30.5,1.7,33.4,19.1,1,5.8.7,11.6.7,17.4,0,8,0,16,.5,24,.2,3,1.3,4.7,4.1,5.5,1.4.4,2.9.7,4.3,1,3.6.8,5,4.5,2.8,7.7-.8,1.2-1.9.9-3.1.9-10.7-.4-21.5-.7-32.2.2-2.1.2-3.4-.4-3.5-2.5-.2-2.1-.9-4.6,1.9-5.6.8-.3,1.6-.4,2.5-.5,5.6-1.1,6.6-2.2,6.6-7.7,0-11.3.4-22.6-.5-33.8-.8-9.4-8.6-15.6-18-14.3-3.6.5-6.9,1.6-10.1,3.4-3.2,1.8-4.5,4.6-4.6,8.1-.4,12.9.6,25.7.6,38.6,0,3,1.4,4.8,4.3,5.3,1.2.2,2.5.7,3.7.7,2.9,0,3.5,1.6,3.4,4.1-.2,3.8-.7,4.2-4.5,4.1-10.6-.3-21.3-.4-31.9.1-2.1.1-3.3-.4-3.5-2.5-.2-2.2-.8-4.6,2.1-5.6,1.6-.5,3.3-.8,4.9-1.1,2.6-.6,3.9-2.3,4.1-4.9,1.1-14.2.5-28.4.6-42.7,0-2.1-1-3.6-2.9-4.6-2.4-1.3-5-2.3-7.6-3.2-1.6-.6-3.4-1.2-3.3-3.3.1-2.3,2-3.1,3.9-3.4,6.1-1,12.2-2.5,18.1-4.3,1.3-.4,2.6-.9,3.9-1.3,3.2-1.1,4.5-.1,4.3,3.4-.2,2.3-.7,4.6-.2,7.4ZM639.1,190c5.1-11.4,5.3-23.3.5-35-4.2-10.3-11.9-16.7-22.5-19.6-5-1.4-10.1-1.7-15.3-1-13,1.9-24,7.2-31,18.8-4.8,8-5.5,16.8-4.6,25.9,2,20.3,15.9,33.3,39.6,33.3,12.9-1,26.3-6.8,33.3-22.5ZM583.7,157.7c4.3-17.9,21.9-18.1,31.5-9.4,7.1,6.4,9.6,15,10.4,24.1.5,6.1.4,12.2-1.3,18.2-3.3,11.6-14,16.4-24.9,11.3-7.9-3.7-12.1-10.5-14.6-18.6-1.5-4.9-2.3-9.8-2-14.4-.1-4.1,0-7.7.8-11.2ZM365.9,193.4c6.9-12.1,7.4-25.1,2.4-38.1-4-10.3-11.6-16.9-22.2-19.9-5.1-1.4-10.3-1.8-15.6-1.1-13,1.9-24,7.2-31.1,18.8-4.8,8-5.5,16.8-4.6,25.9,2,20.4,15.9,33.4,39.8,33.4,11.1-.8,23.8-5.7,31.4-19ZM352.7,190.8c-3.3,11.3-13.7,16-24.4,11.3-5-2.2-8.8-5.9-11.4-10.6-5.9-10.5-7-21.9-4.6-33.4,3.9-18.7,22.2-18.7,32.1-9.2,6.9,6.6,9.1,15.2,9.9,24.3.1,1.5,0,2.9,0,4.4.3,4.5-.3,8.9-1.5,13.1Z" class="cls-1"/></svg>