<svg xmlns="http://www.w3.org/2000/svg" id="Layer_1" data-name="Layer 1" viewBox="0 0 196.22 55.41"><defs><style>.cls-1{fill:#a5aeb5;stroke-width:0}</style></defs><path d="M180.5,19.66c-.48,0-.94.1-1.35.33l-13.01,7.51c-.84.48-1.35,1.4-1.35,2.38v15c0,.97.51,1.89,1.35,2.38l3.4,1.96c1.65.81,2.26.8,3.01.8,2.44,0,3.84-1.48,3.84-4.06v-14.8c0-.21-.18-.36-.39-.36h-1.63c-.21,0-.39.15-.39.36v14.8c0,1.14-1.19,2.29-3.12,1.33l-3.53-2.07c-.12-.07-.22-.19-.22-.33v-15c0-.14.1-.29.22-.36l12.98-7.49c.12-.07.27-.07.39,0l12.98,7.49c.12.07.22.21.22.36v15c0,.14-.07.29-.19.36l-13.01,7.49c-.12.07-.27.07-.39,0l-3.34-1.99c-.1-.06-.24-.05-.33,0-.92.52-1.1.58-1.96.88-.21.07-.54.19.11.55l4.36,2.57c.42.24.88.36,1.35.36s.94-.12,1.35-.36l13.01-7.49c.84-.49,1.35-1.4,1.35-2.38v-15c0-.97-.51-1.89-1.35-2.38l-13.01-7.51c-.41-.23-.88-.33-1.35-.33h0ZM183.98,30.38c-3.7,0-5.91,1.58-5.91,4.2,0,2.84,2.19,3.63,5.75,3.98,4.25.42,4.59,1.04,4.59,1.88,0,1.45-1.16,2.07-3.89,2.07-3.44,0-4.19-.86-4.45-2.57-.03-.18-.17-.33-.36-.33h-1.69c-.21,0-.38.18-.39.39,0,2.19,1.19,4.78,6.88,4.78,4.12,0,6.49-1.61,6.49-4.45s-1.92-3.56-5.91-4.09c-4.03-.54-4.42-.79-4.42-1.74,0-.78.33-1.82,3.31-1.82,2.67,0,3.66.58,4.06,2.38.04.17.18.31.36.31h1.69c.1,0,.2-.06.28-.14.07-.08.12-.17.11-.28-.26-3.1-2.33-4.56-6.49-4.56h0Z" class="cls-1"/><path d="M104.02,0c-.15,0-.29.04-.41.11-.26.15-.41.42-.41.72v21.13c0,.21-.1.39-.28.5-.18.1-.4.1-.58,0l-3.45-1.99c-.51-.3-1.14-.3-1.66,0l-13.78,7.95c-.52.3-.83.87-.83,1.46v15.91c0,.59.32,1.14.83,1.44l13.78,7.95c.51.3,1.14.3,1.66,0l13.78-7.95c.51-.3.83-.84.83-1.44V6.13c0-.6-.33-1.17-.86-1.46L104.43.08c-.13-.07-.27-.08-.41-.08h0ZM15.36,19.86c-.26.01-.51.06-.75.19L.83,28.01C.31,28.3,0,28.85,0,29.44l.03,21.35c0,.3.15.57.41.72.26.15.57.15.83,0l8.18-4.7c.52-.31.86-.84.86-1.44v-9.97c0-.6.31-1.14.83-1.44l3.48-2.02c.25-.15.54-.22.83-.22.29,0,.58.07.83.22l3.48,2.01c.52.3.83.84.83,1.44v9.97c0,.59.35,1.13.86,1.44l8.18,4.7c.26.15.57.15.83,0,.25-.15.41-.42.41-.72l.03-21.35c0-.59-.31-1.14-.83-1.44l-13.78-7.95c-.23-.14-.48-.18-.75-.19h-.17ZM139.21,20.05c-.29,0-.58.08-.83.22l-13.78,7.95c-.51.3-.83.84-.83,1.44v15.91c0,.6.34,1.14.86,1.44l13.67,7.79c.5.29,1.12.31,1.63.03l8.29-4.61c.26-.15.44-.42.44-.72s-.15-.57-.41-.72l-13.87-7.95c-.26-.15-.44-.45-.44-.75v-4.97c0-.3.18-.57.44-.72l4.31-2.49c.26-.15.57-.15.83,0l4.31,2.49c.26.15.41.42.41.72v3.92c0,.3.16.57.41.72.26.15.57.15.83,0l8.26-4.81c.51-.3.83-.84.83-1.44v-3.84c0-.59-.32-1.14-.83-1.44l-13.7-7.95c-.25-.15-.54-.22-.83-.22h0ZM98,31.93c.08,0,.15.02.22.05l4.72,2.73c.13.07.22.21.22.36v5.47c0,.15-.09.29-.22.36l-4.72,2.73c-.13.07-.29.07-.41,0l-4.72-2.73c-.13-.07-.22-.21-.22-.36v-5.47c0-.15.09-.28.22-.36l4.72-2.73c.06-.04.12-.05.19-.05h0s0,0,0,0Z" class="cls-1"/><path d="M56.76,19.97c-.29,0-.58.08-.83.22l-13.78,7.93c-.52.3-.83.87-.83,1.46v15.91c0,.59.31,1.14.83,1.44l13.78,7.95c.51.3,1.14.3,1.66,0l13.78-7.95c.51-.3.83-.84.83-1.44v-15.91c0-.6-.31-1.17-.83-1.46l-13.78-7.93c-.25-.15-.54-.22-.83-.22h0ZM139.18,34.17c-.05,0-.12,0-.17.03l-2.65,1.55c-.1.06-.16.16-.17.28v3.04c0,.11.07.22.17.28l2.65,1.52c.09.06.21.06.3,0l2.65-1.52c.1-.06.17-.16.17-.28v-3.04c0-.11-.07-.22-.17-.28l-2.65-1.55s-.08-.03-.14-.03h0Z" class="cls-1"/></svg>