<svg xmlns="http://www.w3.org/2000/svg" id="Layer_1" data-name="Layer 1" viewBox="0 0 198.01 52.79"><defs><style>.cls-1{fill:#a5aeb5;stroke-width:0}</style></defs><circle cx="29.62" cy="26.34" r="5.31" class="cls-1"/><path d="M29.62,38.49c-6.36.16-12.71-.71-18.79-2.58-2.81-.9-5.43-2.3-7.74-4.13-2.06-1.77-3.1-3.61-3.1-5.45,0-3.54,3.83-6.93,10.32-9.21,6.26-2,12.81-2.97,19.38-2.87,7.07,0,13.85.96,19.09,2.8,3.1,1.03,5.67,2.43,7.52,3.98,1.99,1.69,3.02,3.46,3.02,5.31,0,3.61-4.27,7.37-11.2,9.65-6,1.76-12.24,2.61-18.5,2.51h0ZM29.62,16.83c-6.85,0-13.56.96-18.57,2.73-4.27,1.47-8.62,4.2-8.62,6.78,0,1.03.81,2.28,2.21,3.54,1.69,1.4,4.05,2.73,6.93,3.68,5.82,1.78,11.9,2.6,17.98,2.43,6.71,0,12.97-.81,17.69-2.43,6.56-2.14,9.51-5.23,9.51-7.22,0-.96-.74-2.21-2.14-3.32-2.01-1.56-4.28-2.76-6.71-3.54-5.91-1.84-12.08-2.73-18.28-2.65h0Z" class="cls-1"/><path d="M17.61,52.79c-1.11,0-2.06-.22-2.8-.66-3.02-1.77-4.05-6.78-2.8-13.49,1.4-6.42,3.84-12.57,7.22-18.2,3.18-5.66,7.23-10.78,12.01-15.18,2.43-2.14,4.94-3.68,7.15-4.5,2.43-.88,4.57-.88,6.12,0,3.17,1.84,4.2,7.37,2.73,14.52-1.44,6.07-3.8,11.89-7,17.24-3.05,5.58-6.95,10.65-11.57,15.03-2.51,2.21-5.08,3.83-7.44,4.64-1.47.37-2.58.59-3.61.59h0ZM21.3,21.62c-3.22,5.39-5.56,11.26-6.93,17.39-.81,4.42-.66,9.51,1.62,10.83,1.69.96,5.82.07,10.83-4.35,3.68-3.24,7.52-8.18,11.05-14.37,3.09-5.12,5.38-10.69,6.78-16.51.64-2.63.79-5.35.44-8.03-.29-1.92-.96-3.24-1.92-3.76-.88-.52-2.28-.44-3.98.15-2.35.98-4.51,2.35-6.41,4.05-4.54,4.26-8.42,9.18-11.5,14.59h0Z" class="cls-1"/><path d="M41.64,52.79c-2.87,0-6.56-1.77-10.32-5.01-4.86-4.41-8.97-9.59-12.16-15.33-3.54-6.12-6.12-12.53-7.15-17.98-.66-3.17-.74-6.12-.29-8.47.44-2.58,1.47-4.42,3.02-5.31,3.17-1.84,8.47.07,13.93,4.86,4.49,4.32,8.34,9.25,11.42,14.66,3.35,5.41,5.79,11.34,7.22,17.54.66,3.24.74,6.34.29,8.77-.52,2.65-1.62,4.5-3.17,5.45-.82.56-1.8.85-2.8.81h0ZM21.37,31.2c3.39,5.9,7.66,11.27,11.64,14.66,3.46,2.95,7.88,5.38,10.17,4.05,1.69-.96,2.95-5.01,1.62-11.5-1.4-5.93-3.74-11.61-6.93-16.8-2.89-5.22-6.57-9.97-10.91-14.08-1.98-1.84-4.28-3.32-6.78-4.35-1.77-.66-3.32-.74-4.2-.22s-1.47,1.77-1.84,3.54c-.33,2.5-.23,5.05.29,7.52,1.03,5.16,3.46,11.27,6.93,17.17h0Z" class="cls-1"/><path d="M88.95,45.05l-9.65-15.11h-7.59v15.11h-4.72V7.1h15.25c6.93,0,11.86,4.42,11.86,11.42s-4.64,10.61-9.87,11.05l10.24,15.48h-5.53ZM89.24,18.52c0-4.27-3.1-7.22-7.59-7.22h-9.95v14.52h9.95c4.5,0,7.59-3.02,7.59-7.3h0Z" class="cls-1"/><path d="M98.67,31.27c0-7.96,5.67-14.37,13.56-14.37,8.33,0,13.19,6.48,13.19,14.74v1.11h-22.25c.37,5.16,3.98,9.51,9.87,9.51,3.1,0,6.34-1.25,8.47-3.46l2.06,2.8c-2.91,2.83-6.85,4.35-10.91,4.2-8.11-.07-14-5.9-14-14.52h0ZM112.16,20.44c-5.9,0-8.77,4.94-8.99,9.14h18.05c-.07-4.13-2.8-9.14-9.06-9.14Z" class="cls-1"/><path d="M147.82,45.05v-3.1c-2.34,2.55-5.68,3.95-9.14,3.83-4.64,0-9.65-3.1-9.65-9.14s4.94-9.06,9.65-9.06c3.76,0,6.85,1.18,9.14,3.76v-4.94c0-3.68-2.95-5.82-6.93-5.82-3.32,0-5.97,1.18-8.4,3.83l-1.99-2.95c2.95-3.1,6.48-4.57,10.98-4.57,5.82,0,10.61,2.65,10.61,9.29v18.86h-4.27ZM147.82,39.23v-5.16c-1.62-2.28-4.57-3.39-7.59-3.39-3.98,0-6.78,2.51-6.78,6.04s2.8,5.97,6.78,5.97c3.02,0,5.9-1.18,7.59-3.46Z" class="cls-1"/><path d="M156.15,31.27c0-8.11,5.53-14.37,13.71-14.37,5.01,0,7.96,2.06,10.1,4.79l-2.87,2.65c-1.55-2.33-4.2-3.7-7-3.61-5.9,0-9.51,4.5-9.51,10.61s3.61,10.61,9.51,10.61c2.87,0,5.16-1.11,7-3.61l2.87,2.65c-2.36,3.18-6.14,4.98-10.1,4.79-8.18-.07-13.71-6.34-13.71-14.52ZM186.81,39.31v-17.98h-4.57v-3.76h4.57v-7.52h4.27v7.52h5.6v3.76h-5.6v17.1c0,2.06.88,3.54,2.8,3.54,1.18,0,2.36-.52,2.87-1.11l1.25,3.17c-1.41,1.26-3.27,1.89-5.16,1.77-4.05-.07-6.04-2.36-6.04-6.48Z" class="cls-1"/></svg>