<svg xmlns="http://www.w3.org/2000/svg" id="Layer_1" data-name="Layer 1" viewBox="0 0 195.9 46.96"><defs><style>.cls-1{fill:#a5aeb5;stroke-width:0}</style></defs><path d="M24.16,4.25h-10.04v31.04h-4.07V4.25H0V.54h24.07v3.71h.09,0ZM43.43,10.5l-11.4,28.77c-2.08,5.16-4.89,7.69-8.6,7.69-.99,0-1.9-.09-2.62-.27v-3.53c.81.27,1.63.46,2.35.46,1.99,0,3.53-1.18,4.52-3.62l1.99-4.71-9.68-24.79h4.43l6.7,19.09c.09.27.27.9.54,1.9h.18c.09-.36.27-.99.46-1.81l7.06-19.18h4.08ZM50.13,31.76h-.08v15.02h-3.98V10.59h3.98v4.34h.09c1.99-3.26,4.8-4.98,8.6-4.98,3.17,0,5.7,1.09,7.51,3.35s2.71,5.16,2.71,8.96c0,4.16-.99,7.51-2.99,9.95s-4.8,3.71-8.33,3.71c-3.26,0-5.7-1.36-7.51-4.16h0ZM50.05,21.72v3.44c0,2.08.63,3.8,1.99,5.25s2.99,2.17,5.07,2.17c2.44,0,4.25-.9,5.7-2.81s2.08-4.43,2.08-7.69c0-2.81-.63-4.89-1.9-6.52-1.27-1.53-2.99-2.35-5.16-2.35-2.35,0-4.16.81-5.61,2.44s-2.17,3.62-2.17,6.06ZM93.48,23.89h-17.55c.09,2.81.81,4.89,2.26,6.42s3.35,2.26,5.88,2.26c2.81,0,5.34-.9,7.69-2.81v3.71c-2.17,1.63-5.07,2.35-8.69,2.35s-6.24-1.09-8.23-3.35-2.99-5.43-2.99-9.5,1.09-6.97,3.26-9.41c2.17-2.44,4.89-3.62,8.14-3.62s5.79,1.09,7.51,3.17c1.81,2.08,2.62,4.98,2.62,8.78v1.99h.09ZM89.41,20.54c0-2.26-.54-4.07-1.63-5.34s-2.62-1.9-4.52-1.9-3.44.63-4.8,1.99c-1.27,1.36-2.08,3.08-2.44,5.25h13.39,0ZM95.65,34.11v-2.71c2.53,1.63,4.98,2.35,7.6,2.35s4.8-.54,6.15-1.72c1.45-1.09,2.08-2.71,2.08-4.71,0-1.81-.46-3.17-1.45-4.25-.9-1.09-2.99-2.53-6.15-4.34-3.53-2.08-5.79-3.8-6.7-5.16-.95-1.42-1.45-3.09-1.45-4.8,0-2.44.99-4.52,2.9-6.24,1.9-1.72,4.43-2.53,7.6-2.53,2.08,0,4.16.36,6.24,1.09v2.53c-2.05-.9-4.27-1.36-6.52-1.36-2.35,0-4.25.63-5.61,1.81s-2.08,2.71-2.08,4.52.46,3.17,1.45,4.25c.9,1.09,2.99,2.44,6.15,4.25,3.26,1.81,5.43,3.44,6.52,4.89s1.63,3.08,1.63,4.98c0,2.62-.9,4.8-2.81,6.52-1.81,1.72-4.43,2.53-7.87,2.53-1.18,0-2.53-.18-4.16-.54-1.45-.46-2.62-.9-3.53-1.36h0ZM135.01,34.2c-1.81,1.09-4.07,1.72-6.61,1.72-3.35,0-6.06-1.18-8.14-3.44-2.08-2.35-3.08-5.34-3.08-9.14s1.18-7.15,3.53-9.68,5.34-3.8,8.96-3.8c1.9,0,3.71.36,5.52,1.18v2.53c-1.77-1.08-3.81-1.65-5.88-1.63-2.9,0-5.25,1.09-7.06,3.17s-2.73,4.8-2.73,8.16.81,5.79,2.44,7.78,3.8,2.9,6.52,2.9c2.44,0,4.61-.63,6.52-1.99v2.26h0ZM150.03,12.85c-.72-.54-1.63-.81-2.62-.81-1.99,0-3.62.99-4.89,2.99-1.36,1.99-1.99,4.89-1.99,8.6v11.67h-2.18V10.5h2.17v5.52h.09c.54-1.9,1.45-3.35,2.71-4.43s2.62-1.53,4.25-1.53c.9,0,1.72.18,2.44.46v2.35h0ZM153.83,4.25c-.46,0-.9-.18-1.27-.54s-.54-.81-.54-1.36.18-.99.54-1.27c.36-.36.81-.46,1.27-.46.54,0,.9.18,1.36.46.36.36.54.72.54,1.27s-.18.99-.54,1.36c-.46.36-.81.54-1.36.54ZM152.75,35.38V10.59h2.26v24.79h-2.27,0ZM162.79,30.95h-.09v15.83h-2.26V10.59h2.26v5.16h.09c.9-1.81,2.17-3.26,3.8-4.25s3.44-1.45,5.43-1.45c3.17,0,5.61,1.09,7.42,3.26s2.62,5.16,2.62,8.87c0,4.16-.99,7.51-3.08,10.04-1.99,2.53-4.71,3.8-8.05,3.8-3.62-.09-6.33-1.72-8.14-5.07h0ZM162.7,21.72v3.17c0,2.53.81,4.61,2.35,6.42s3.62,2.71,6.15,2.71,4.61-1.09,6.15-3.26,2.35-5.07,2.35-8.6c0-3.08-.72-5.61-2.17-7.42s-3.44-2.71-5.79-2.71c-2.9,0-5.16.99-6.7,2.9s-2.35,4.16-2.35,6.79h0ZM195.9,35.02c-1.18.54-2.26.81-3.26.81-3.71,0-5.52-2.17-5.52-6.61V12.58h-4.43v-2.08h4.43v-6.42c.36-.09.72-.27,1.09-.36s.72-.27,1.09-.36v7.24h6.52v2.08h-6.52v16.38c0,1.72.27,2.99.81,3.71s1.45,1.18,2.71,1.18c.9,0,1.9-.27,2.99-.9v1.99h.09,0Z" class="cls-1"/></svg>