<svg xmlns="http://www.w3.org/2000/svg" id="Layer_1" data-name="Layer 1" viewBox="0 0 191.96 51.57"><defs><style>.cls-1{fill:#a5aeb5;stroke-width:0}</style></defs><g id="ubuntu"><path d="M16.97,25.21c0-3.98,1.87-7.53,4.77-9.81l-4.45-7.12c-3.73,2.68-6.53,6.55-7.85,11.06,2.07,1.33,3.44,3.66,3.44,6.31s-1.27,4.8-3.22,6.16c1.42,4.27,4.19,7.93,7.81,10.46l4.13-7.35c-2.83-2.28-4.65-5.78-4.65-9.7Z" class="cls-1"/><path d="M10.79,25.65c0,2.98-2.42,5.39-5.39,5.39S0,28.62,0,25.65s2.42-5.39,5.39-5.39,5.39,2.42,5.39,5.39Z" class="cls-1"/><path d="M41.08,38.68c1.25,0,2.44.31,3.47.85,3.23-3.41,5.32-7.9,5.67-12.88l-8.38-.16c-.64,6.28-5.95,11.18-12.4,11.18-1.79,0-3.49-.38-5.03-1.05l-4.16,7.29c2.78,1.37,5.89,2.13,9.19,2.13,1.42,0,2.82-.14,4.17-.42.29-3.87,3.52-6.93,7.48-6.93Z" class="cls-1"/><path d="M46.47,46.18c0,2.98-2.41,5.39-5.39,5.39s-5.39-2.41-5.39-5.39,2.41-5.39,5.39-5.39c2.98,0,5.39,2.41,5.39,5.39Z" class="cls-1"/><path d="M45.12,11.51c-1.22.86-2.71,1.38-4.33,1.38-4.14,0-7.5-3.36-7.5-7.5,0-.22,0-.43.03-.65-1.26-.24-2.56-.36-3.89-.36-3.33,0-6.48.78-9.27,2.17l4.14,7.29c1.57-.71,3.3-1.1,5.13-1.1,6.39,0,11.66,4.82,12.38,11.02l8.38-.26c-.37-4.57-2.22-8.73-5.07-11.99Z" class="cls-1"/><path d="M46.18,5.39c0,2.98-2.41,5.39-5.39,5.39s-5.39-2.41-5.39-5.39c0-2.98,2.41-5.39,5.39-5.39s5.39,2.42,5.39,5.39Z" class="cls-1"/></g><path d="M77.41,38.11c-.95.24-2.2.49-3.75.75s-3.35.4-5.39.4c-1.77,0-3.27-.26-4.48-.78s-2.19-1.25-2.93-2.2-1.27-2.06-1.6-3.35-.49-2.71-.49-4.28v-12.95h4.12v12.06c0,2.81.44,4.82,1.33,6.03s2.38,1.82,4.48,1.82c.46,0,.92-.02,1.37-.04.47-.03.92-.07,1.33-.11l1.13-.13c.34-.04.58-.1.73-.16V15.71h4.12v22.39h0ZM87.48,16.73c.5-.32,1.26-.67,2.28-1.02s2.2-.53,3.53-.53c1.66,0,3.13.3,4.41.89s2.37,1.42,3.26,2.48,1.56,2.34,2.02,3.81.69,3.1.69,4.88c0,1.86-.27,3.54-.82,5.03-.55,1.49-1.32,2.76-2.33,3.79s-2.22,1.83-3.64,2.39-3.02.84-4.79.84c-1.92,0-3.62-.13-5.1-.4s-2.69-.53-3.64-.8V5.07l4.12-.71v12.37h0ZM87.48,35.18c.41.12,1,.23,1.75.33s1.69.16,2.82.16c2.22,0,3.99-.73,5.32-2.2s2-3.54,2-6.23c0-1.18-.12-2.29-.35-3.33-.24-1.04-.62-1.93-1.15-2.68s-1.22-1.35-2.06-1.77-1.86-.64-3.04-.64-2.16.19-3.1.58-1.67.79-2.18,1.2v14.59h0ZM126.68,38.11c-.95.24-2.2.49-3.75.75s-3.35.4-5.39.4c-1.77,0-3.27-.26-4.48-.78s-2.19-1.25-2.93-2.2-1.27-2.06-1.6-3.35-.49-2.71-.49-4.28v-12.95h4.12v12.06c0,2.81.44,4.82,1.33,6.03s2.38,1.82,4.48,1.82c.46,0,.92-.02,1.37-.04.47-.03.92-.07,1.33-.11l1.13-.13c.34-.04.58-.1.73-.16V15.71h4.12v22.39h0ZM132.62,16.38c.95-.24,2.2-.49,3.77-.75s3.37-.4,5.41-.4c1.83,0,3.36.26,4.57.78s2.18,1.24,2.9,2.17,1.23,2.05,1.53,3.35.44,2.73.44,4.3v12.95h-4.12v-12.06c0-1.42-.1-2.63-.29-3.64s-.51-1.82-.95-2.44c-.44-.62-1.03-1.07-1.77-1.35s-1.66-.42-2.75-.42c-.44,0-.9.02-1.38.04s-.92.07-1.35.11c-.39.04-.77.09-1.15.16l-.73.13v19.47h-4.12v-22.39ZM160.78,15.71h8.74v3.46h-8.74v10.64c0,1.15.09,2.11.27,2.86s.44,1.35.8,1.77c.35.42.81.74,1.33.91.53.18,1.15.27,1.86.27,1.27,0,2.28-.14,3.02-.42s1.24-.48,1.51-.6l.89,3.37c-.41.21-1.15.47-2.2.8s-2.24.49-3.57.49c-1.57,0-2.86-.2-3.88-.6s-1.84-1-2.46-1.8-1.06-1.78-1.31-2.95-.38-2.52-.38-4.06V9.28l4.12-.71v7.14h0ZM191.96,38.11c-.95.24-2.2.49-3.75.75s-3.35.4-5.39.4c-1.77,0-3.27-.26-4.48-.78s-2.19-1.25-2.93-2.2-1.27-2.06-1.6-3.35-.49-2.71-.49-4.28v-12.95h4.12v12.06c0,2.81.44,4.82,1.33,6.03s2.38,1.82,4.48,1.82c.46,0,.92-.02,1.37-.04.44-.03.89-.06,1.33-.11l1.13-.13c.34-.04.58-.1.73-.16V15.71h4.12v22.39h0Z" class="cls-1"/></svg>